<?xml version="1.0" standalone="no"?>
<!DOCTYPE svg PUBLIC "-//W3C//DTD SVG 20010904//EN"
 "http://www.w3.org/TR/2001/REC-SVG-20010904/DTD/svg10.dtd">
<svg version="1.0" xmlns="http://www.w3.org/2000/svg"
 width="1280.000000pt" height="1280.000000pt" viewBox="0 0 1280.000000 1280.000000"
 preserveAspectRatio="xMidYMid meet">
<metadata>
Created by potrace 1.14, written by Peter Selinger 2001-2017
</metadata>
<g transform="translate(0.000000,1280.000000) scale(0.100000,-0.100000)"
fill="#000000" stroke="none">
<path d="M1560 7740 l0 -4680 330 0 330 0 0 3565 0 3565 4500 0 4500 0 0 1115
0 1115 -4830 0 -4830 0 0 -4680z"/>
<path d="M7102 9727 c9 -7 58 -41 108 -76 178 -125 385 -327 516 -501 347
-465 510 -1025 491 -1684 -18 -607 -193 -1111 -535 -1544 -79 -100 -292 -308
-397 -389 -472 -358 -1072 -573 -1770 -633 -69 -5 -443 -10 -872 -10 l-753 0
0 -1140 0 -1140 -1165 0 -1165 0 0 -1115 0 -1115 4833 2 4832 3 0 340 0 340
-345 5 -345 5 0 345 0 345 345 5 346 5 -1 340 0 340 -348 3 -347 2 2 343 3
342 341 3 342 2 6 23 c7 27 6 635 -1 653 -4 11 -69 14 -349 14 l-344 0 2 343
3 342 345 5 345 5 3 230 c2 127 1 281 -3 343 l-7 112 -344 0 -344 0 0 345 0
345 348 2 347 3 2 343 2 342 -349 0 -350 0 0 345 0 345 348 2 347 3 1 343 2
342 -349 0 -349 0 0 345 0 345 348 2 347 3 2 533 2 532 -2072 0 c-1631 -1
-2068 -3 -2055 -13z"/>
<path d="M3890 7530 l0 -1161 783 4 c766 3 784 4 882 26 303 68 518 180 686
358 195 207 289 461 289 781 0 561 -294 944 -833 1087 -214 57 -231 58 -1049
62 l-758 4 0 -1161z"/>
</g>
</svg>
